<?xml version="1.0" encoding="utf-8"?>
<!-- Generator: Adobe Illustrator 17.0.0, SVG Export Plug-In . SVG Version: 6.00 Build 0)  -->
<!DOCTYPE svg PUBLIC "-//W3C//DTD SVG 1.1//EN" "http://www.w3.org/Graphics/SVG/1.1/DTD/svg11.dtd">
<svg version="1.1" id="Layer_1" xmlns="http://www.w3.org/2000/svg" xmlns:xlink="http://www.w3.org/1999/xlink" x="0px" y="0px"
	 width="120px" height="146px" viewBox="3 -10 120 146" enable-background="new 3 -10 120 146" xml:space="preserve">
<g>
	<path fill="#4ECC33" d="M5.643-2.178L16.07,114.981l46.766,13.197l47.091-13.197l10.43-117.159
		C120.357-2.178,5.643-2.178,5.643-2.178z"/>
	<polygon opacity="0.4" fill="#357C23" points="62.999,-2.178 62.999,128.178 109.926,114.981 120.356,-2.178 	"/>
	<g>
		<g>
			<path d="M74.105,82.517c-0.863,0-1.447,0.084-1.754,0.167v5.541c0.363,0.082,0.809,0.11,1.42,0.11
				c2.256,0,3.646-1.142,3.646-3.062C77.417,83.547,76.22,82.517,74.105,82.517z"/>
			<path d="M41.855,82.628h-0.053c-0.279,1.115-0.559,2.534-0.863,3.619l-1.115,3.98h4.148l-1.17-3.98
				C42.468,85.134,42.134,83.744,41.855,82.628z"/>
			<path d="M102.884,29.587c-0.006-0.468-0.154-0.93-0.475-1.295L82.741,5.828c-0.004-0.006-0.01-0.008-0.016-0.014
				c-0.117-0.131-0.252-0.239-0.396-0.334c-0.043-0.028-0.086-0.053-0.131-0.078c-0.127-0.068-0.258-0.124-0.395-0.165
				c-0.037-0.011-0.07-0.026-0.107-0.036c-0.15-0.035-0.303-0.057-0.459-0.057H32.904c-2.205,0-4,1.795-4,4v94c0,2.206,1.795,4,4,4
				h66c2.207,0,4-1.794,4-4V29.811C102.904,29.736,102.892,29.662,102.884,29.587z M46.031,98.22l-1.447-4.815h-5.371l-1.338,4.815
				h-4.398l5.736-18.766h5.566l5.818,18.766H46.031z M57.704,98.497c-2.146,0-4.262-0.557-5.318-1.142l0.863-3.506
				c1.141,0.584,2.893,1.166,4.705,1.166c1.947,0,2.979-0.805,2.979-2.029c0-1.17-0.891-1.837-3.146-2.646
				c-3.119-1.084-5.148-2.811-5.148-5.54c0-3.2,2.672-5.649,7.098-5.649c2.117,0,3.676,0.444,4.789,0.943l-0.949,3.426
				c-0.75-0.361-2.088-0.892-3.924-0.892c-1.838,0-2.729,0.836-2.729,1.811c0,1.196,1.059,1.727,3.48,2.644
				c3.313,1.225,4.871,2.952,4.871,5.597C65.275,95.827,62.853,98.497,57.704,98.497z M79.896,89.616
				c-1.447,1.365-3.592,1.978-6.098,1.978c-0.557,0-1.057-0.028-1.447-0.083v6.71h-4.205V79.706c1.311-0.224,3.148-0.39,5.736-0.39
				c2.617,0,4.484,0.502,5.734,1.504c1.199,0.945,2.006,2.507,2.006,4.343C81.622,87.001,81.011,88.558,79.896,89.616z
				 M93.431,98.22l-1.697-3.398c-0.697-1.306-1.141-2.283-1.67-3.369h-0.055c-0.391,1.086-0.863,2.063-1.449,3.369l-1.559,3.398
				h-4.844l5.43-9.494l-5.236-9.271h4.875l1.641,3.426c0.557,1.143,0.975,2.06,1.42,3.116h0.057c0.445-1.196,0.807-2.03,1.279-3.116
				l1.586-3.426h4.844l-5.289,9.159l5.568,9.606C98.332,98.22,93.431,98.22,93.431,98.22z M32.904,73.061V9.144h46.334V29.61
				c0,1.104,0.895,2,2,2h17.666l0.002,41.451C98.906,73.061,32.904,73.061,32.904,73.061z"/>
		</g>
		<g>
			<path d="M39.161,46.496l18.23-9.407v4.472l-13.787,6.708v0.084l13.787,6.707v4.473l-18.23-9.408V46.496z"/>
			<path d="M60.21,61.219l8.131-30.584h3.834l-8.127,30.584H60.21z"/>
			<path d="M92.613,50.249l-18.23,9.283v-4.473l14.092-6.707v-0.084L74.383,41.56v-4.472l18.23,9.281
				C92.613,46.369,92.613,50.249,92.613,50.249z"/>
		</g>
	</g>
</g>
</svg>
