<?xml version="1.0" encoding="utf-8"?>
<!-- Generator: Adobe Illustrator 17.0.0, SVG Export Plug-In . SVG Version: 6.00 Build 0)  -->
<!DOCTYPE svg PUBLIC "-//W3C//DTD SVG 1.1//EN" "http://www.w3.org/Graphics/SVG/1.1/DTD/svg11.dtd">
<svg version="1.1" id="Layer_1" xmlns="http://www.w3.org/2000/svg" xmlns:xlink="http://www.w3.org/1999/xlink" x="0px" y="0px"
	 width="120px" height="146px" viewBox="3 -10 120 146" enable-background="new 3 -10 120 146" xml:space="preserve">
<g>
	<path fill="#505151" d="M5.643-2.178L16.07,114.981l46.766,13.197l47.091-13.197l10.43-117.159
		C120.357-2.178,5.643-2.178,5.643-2.178z"/>
	<g>
		<g>
			<path fill="#FFFFFF" d="M74.491,34.764c0.328,1.151,0.481,2.374,0.429,3.635c-0.239,5.83-4.767,10.472-10.419,11.007"/>
			<path fill="#FFFFFF" d="M64.501,49.407c-0.328-1.151-0.276-3.635-0.276-3.635c0.239-5.831,4.768-10.473,10.42-11.007"/>
		</g>
		<path fill="#FFFFFF" d="M88.861,54.981c0,0-7.624-7.788-15.672-5.588c-8.048,2.2-9.601,3.329-15.531,0.647
			c-5.93-2.683-10.307-2.259-13.977,0.988s-7.906,8.471-7.906,17.084s3.388,18.919,8.33,24.708
			c4.942,5.789,11.154,6.212,15.389,4.377s10.307-0.324,12.707,0.967c2.4,1.292,8.895,0.727,12.707-5.485
			c3.812-6.212,7.342-8.895,3.953-11.718c-3.388-2.824-6.777-7.059-7.201-14.26S88.861,54.981,88.861,54.981z"/>
	</g>
	<polygon opacity="0.4" fill="#353535" points="62.999,-2.178 62.999,128.178 109.926,114.981 120.356,-2.178 	"/>
</g>
</svg>
