<?xml version="1.0" encoding="utf-8"?>
<!-- Generator: Adobe Illustrator 17.0.0, SVG Export Plug-In . SVG Version: 6.00 Build 0)  -->
<!DOCTYPE svg PUBLIC "-//W3C//DTD SVG 1.1//EN" "http://www.w3.org/Graphics/SVG/1.1/DTD/svg11.dtd">
<svg version="1.1" id="Layer_1" xmlns="http://www.w3.org/2000/svg" xmlns:xlink="http://www.w3.org/1999/xlink" x="0px" y="0px"
	 width="120px" height="146px" viewBox="3 -10 120 146" enable-background="new 3 -10 120 146" xml:space="preserve">
<g>
	<path fill="#7137CC" d="M5.643-2.178L16.07,114.981l46.766,13.197l47.091-13.197l10.43-117.159
		C120.357-2.178,5.643-2.178,5.643-2.178z"/>
	<g>
		<path fill="#FFFFFF" d="M71.974,5.806c0,0,2.345,7.31-2.483,13.793S54.181,33.255,53.215,34.22
			c-0.966,0.966-8.414,7.448-5.241,14.345s12.614,14.497,12.614,14.497s-1.364-2.342-5.994-10.359
			c-4.244-7.348,0.69-12.966,1.517-14.069s11.035-9.379,13.655-12.69c2.621-3.31,6.069-8.828,4.828-14.483
			S71.974,5.806,71.974,5.806z"/>
		<path fill="#FFFFFF" d="M64.802,67.6c0,0,4.414-3.172,3.172-7.172c-1.241-4-6.104-8.579-6.593-11.826
			c0,0-0.873-9.215,7.558-14.244c6.67-3.978,15.724-6.621,15.724-6.621S67.961,37.245,67.42,43.052
			c-0.283,3.038,1.106,4.41,3.727,8.686c2.621,4.276,3.709,5.451,0.552,10.483C69.518,65.695,64.802,67.6,64.802,67.6z"/>
		<path fill="#FFFFFF" d="M48.526,64.428c0,0-3.689-0.416-10.069,1.241c-8.697,2.26-9.793,4.966-5.517,6.069
			c4.276,1.103,11.173,2.207,22.483,1.793c11.31-0.414,21.931-1.931,23.586-2.483c1.655-0.552,1.241-1.293,4.276-2.233
			c0,0-13.931,1.819-24.69,1.957s-16.69,0-18.483-0.828c-1.793-0.828-1.931-1.655,1.655-3.035
			C45.353,65.531,48.526,64.428,48.526,64.428z"/>
		<path fill="#FFFFFF" d="M85.905,65.393c0,0,2.897-4.143,9.931-1.382s3.988,10.404,3.988,10.404
			c-2.318,4.599-9.367,8.358-15.988,9.599c0,0,11.93-6.933,12.344-11.899C96.594,67.15,93.354,63.048,85.905,65.393z"/>
		<path fill="#FFFFFF" d="M44.527,76.538c0,0-3.909,3.062,2.665,4.028c6.575,0.966,25.196-0.138,28.368-1.517
			c0,0,3.035,2.621,4,2.621c0.966,0-10.759,3.724-21.38,3.172c-10.621-0.552-15.865-0.018-18.897-3.724
			C37.274,78.661,44.527,76.538,44.527,76.538z"/>
		<path fill="#FFFFFF" d="M47.192,87.876c0,0-2.437,1.655,0,2.621c2.437,0.966,15.264,2.069,24.92-0.276l5.517,2.759
			c0,0-2.897,2.621-10.897,3.31s-16.414,0.414-21.38-1.655s-3.172-4.276-1.517-5.379C45.491,88.152,47.192,87.876,47.192,87.876z"/>
		<path fill="#FFFFFF" d="M93.905,96.629c0,0,3.172,0.903,1.379,3.11s-11.173,5.104-17.104,5.655
			c-5.931,0.552-20.138,2.345-37.38,0.69s-18.345-1.873-18.759-4.385c-0.414-2.512,7.172-4.857,9.655-5.408s5.191-0.966,6.871,0
			c0,0-7.212,1.603-7.983,2.023c-1.816,0.991-4.958,2.529,4.146,4.046s24.112,2.069,36.47,1.103
			c12.358-0.966,18.582-1.655,20.919-3.172S95.009,98.76,93.905,96.629z"/>
		<path fill="#FFFFFF" d="M100.406,102.359c0,0-0.828,4.828-8.285,6.483s-16.836,3.31-26.768,3.172s-24,0-29.242-3.035
			c0,0,23.035,1.655,28,1.241C69.077,109.807,89.113,109.945,100.406,102.359z"/>
	</g>
	<polygon opacity="0.4" fill="#5D5D5D" points="62.999,-2.178 62.999,128.178 109.926,114.981 120.356,-2.178 	"/>
</g>
</svg>
