<?xml version="1.0" encoding="utf-8"?>
<!-- Generator: Adobe Illustrator 17.0.0, SVG Export Plug-In . SVG Version: 6.00 Build 0)  -->
<!DOCTYPE svg PUBLIC "-//W3C//DTD SVG 1.1//EN" "http://www.w3.org/Graphics/SVG/1.1/DTD/svg11.dtd">
<svg version="1.1" id="Capa_1" xmlns="http://www.w3.org/2000/svg" xmlns:xlink="http://www.w3.org/1999/xlink" x="0px" y="0px"
	 width="120px" height="146px" viewBox="196 183 120 146" enable-background="new 196 183 120 146" xml:space="preserve">
<g>
	<path fill="#F8DC3D" d="M199.285,190.822l10.428,117.159l46.766,13.197l47.091-13.197L314,190.822
		C314,190.822,199.285,190.822,199.285,190.822z"/>
	<polygon fill="#CEB538" points="256.642,190.822 256.642,321.178 303.569,307.981 313.999,190.822 	"/>
	<g>
		<path d="M224.561,271.284l-9.454,5.759c0,0,4.238,10.866,17.821,10.866c13.583,0,17.169-9.236,17.495-13.909
			c0.326-4.673,0-44.552,0-44.552h-11.627v41.51c0,0,0.036,6.302-5.741,6.302C227.278,277.261,225.974,273.892,224.561,271.284z"/>
		<path d="M294.758,238.359c0,0-3.586-8.258-12.931-9.236c-9.345-0.978-17.712,1.847-20.537,11.084s3.043,16.843,6.846,18.69
			s5.868,3.26,8.15,4.021s10.214,4.238,10.214,7.824s-1.67,7.896-10.54,6.52c-6.302-0.978-9.236-6.954-9.236-6.954l-9.671,5.542
			c0,0,3.912,7.606,11.41,10.214c7.498,2.608,16.082,2.825,21.841-0.869c5.759-3.695,12.638-12.502,5.107-23.471
			c-4.999-7.28-21.407-10.975-23.037-15.974s5.944-8.568,9.78-5.325c1.234,1.043,3.369,3.912,3.369,3.912L294.758,238.359z"/>
	</g>
</g>
</svg>
