<?xml version="1.0" encoding="utf-8"?>
<!-- Generator: Adobe Illustrator 17.0.0, SVG Export Plug-In . SVG Version: 6.00 Build 0)  -->
<!DOCTYPE svg PUBLIC "-//W3C//DTD SVG 1.1//EN" "http://www.w3.org/Graphics/SVG/1.1/DTD/svg11.dtd">
<svg version="1.1" id="Capa_1" xmlns="http://www.w3.org/2000/svg" xmlns:xlink="http://www.w3.org/1999/xlink" x="0px" y="0px"
	 width="120px" height="146px" viewBox="196 183 120 146" enable-background="new 196 183 120 146" xml:space="preserve">
<g>
	<path fill="#BC1B1B" d="M199,190.822l10.428,117.159l46.766,13.197l47.091-13.197l10.43-117.159
		C313.715,190.822,199,190.822,199,190.822z"/>
	<g>
		<polygon fill="none" stroke="#FFFFFF" stroke-width="3" stroke-miterlimit="10" points="207.312,238.667 256.976,288.714 
			305.404,238.667 286.135,218.148 228.832,218.148 		"/>
		<polygon fill="none" stroke="#FFFFFF" stroke-width="3" stroke-miterlimit="10" points="234.587,238.667 256.792,286.595 
			278.628,238.667 257.767,218.804 		"/>
		<polygon fill="none" stroke="#FFFFFF" stroke-width="3" stroke-miterlimit="10" points="228.227,219.36 234.587,238.667 
			209.762,238.227 		"/>
		<polygon fill="none" stroke="#FFFFFF" stroke-width="3" stroke-miterlimit="10" points="257.183,218.804 235.088,238.227 
			228.993,219.36 		"/>
		<polygon fill="none" stroke="#FFFFFF" stroke-width="3" stroke-miterlimit="10" points="284.918,218.148 278.628,237.576 
			257.668,218.148 		"/>
		<polygon fill="none" stroke="#FFFFFF" stroke-width="3" stroke-miterlimit="10" points="303.171,238.131 278.628,238.667 
			286.676,219.36 		"/>
		
			<line fill="none" stroke="#FFFFFF" stroke-width="3" stroke-miterlimit="10" x1="208.181" y1="238.667" x2="305.404" y2="238.667"/>
	</g>
	<polygon opacity="0.4" fill="#A31A1A" points="256.24,190.822 256.24,321.178 303.167,307.981 313.597,190.822 	"/>
</g>
</svg>
