<?xml version="1.0" encoding="utf-8"?>
<!-- Generator: Adobe Illustrator 17.0.0, SVG Export Plug-In . SVG Version: 6.00 Build 0)  -->
<!DOCTYPE svg PUBLIC "-//W3C//DTD SVG 1.1//EN" "http://www.w3.org/Graphics/SVG/1.1/DTD/svg11.dtd">
<svg version="1.1" id="Layer_1" xmlns="http://www.w3.org/2000/svg" xmlns:xlink="http://www.w3.org/1999/xlink" x="0px" y="0px"
	 width="120px" height="146px" viewBox="3 -10 120 146" enable-background="new 3 -10 120 146" xml:space="preserve">
<g>
	<path fill="#1A9AB5" d="M5.643-2.178L16.07,114.981l46.766,13.197l47.091-13.197l10.43-117.159
		C120.357-2.178,5.643-2.178,5.643-2.178z"/>
	<polygon opacity="0.6" fill="#415970" points="62.999,-2.178 62.999,128.178 109.926,114.981 120.356,-2.178 	"/>
	<g>
		<g>
			<g>
				<g>
					<g opacity="0.8">
						<g>
							<path fill="#FFFFFF" d="M55.622,47.775c-0.959,0.819-1.954,1.548-2.747,2.463c-0.408,0.443-0.841,0.854-1.212,1.315
								c-0.357,0.471-0.711,0.939-1.063,1.405c-0.369,0.45-0.659,0.955-0.951,1.453c-0.289,0.499-0.59,0.987-0.859,1.489
								l-0.698,1.565l-0.337,0.782l-0.258,0.817c-1.111,3.357-1.438,6.707-1.203,9.962c0.244,3.255,1.077,6.457,2.65,9.486
								c1.556,2.995,3.56,5.401,5.971,7.385c2.255,2.156,5.003,3.977,8.104,5.188c3.092,1.199,6.551,1.825,9.974,1.462
								c0.368,0.012,1.105,0.05,1.706-0.068c0.594-0.182,1.03-0.519,0.821-1.145c3.172-0.241,6.388-1.066,9.268-2.675
								c2.868-1.586,5.345-3.961,6.859-6.881c0.318-0.609,0.754-1.162,1.164-1.747c0.374-0.601,0.816-1.19,1.228-1.807
								c0.359-0.636,0.729-1.285,1.071-1.95c0.263-0.686,0.499-1.387,0.678-2.092c0.329-2.332,0.793-4.653,0.902-7.091
								c0.036-2.411-0.22-4.906-1.094-7.218c-0.316-0.613-1.254-1.782-1.404-2.342c-1.115-3.252-3.287-5.918-5.77-8.049
								c-2.507-2.128-5.369-3.778-8.479-4.963c-1.205-0.534-2.355-0.748-3.463-1.094c-0.57-0.105-1.136-0.209-1.714-0.315
								c-0.291-0.053-0.586-0.107-0.885-0.162c-0.303-0.025-0.612-0.051-0.928-0.077c-0.231,0.019-0.839-0.035-1.562-0.084
								c-0.483-0.015-1.519,0.012-2.825,0.047c-0.646,0.085-1.359,0.178-2.101,0.275c-0.75,0.069-1.489,0.33-2.244,0.494
								c-0.758,0.161-1.477,0.424-2.15,0.685c-0.67,0.265-1.327,0.454-1.847,0.751c-1.04,0.526-1.795,0.907-2.063,1.043
								c-0.105,0.071,1.016-0.556,2.814-1.387c1.837-0.732,4.4-1.611,7.077-1.874c2.662-0.277,5.355-0.219,7.295,0.172
								c0.486,0.084,0.935,0.128,1.319,0.222c0.383,0.097,0.715,0.18,0.985,0.249c0.539,0.133,0.827,0.2,0.785,0.177
								c-0.119-0.026-1.017-0.327-2.357-0.589c-0.674-0.102-1.454-0.237-2.294-0.344c-0.844-0.04-1.747-0.104-2.656-0.125
								c-0.907,0.051-1.826,0.075-2.696,0.151c-0.864,0.133-1.683,0.26-2.409,0.372c-1.426,0.351-2.48,0.642-2.777,0.723
								c3.076-0.97,6.005-1.286,8.633-1.287c0.658,0.021,1.299,0.042,1.923,0.062c0.621,0.06,1.222,0.151,1.808,0.219
								c0.293,0.036,0.582,0.072,0.866,0.107c0.28,0.06,0.557,0.12,0.829,0.178c0.545,0.118,1.074,0.233,1.587,0.345
								c4.077,1.053,6.927,2.616,8.896,3.877c1.028,0.582,1.763,1.207,2.396,1.651c0.64,0.438,1.078,0.813,1.379,1.081
								c0.617,0.52,0.717,0.571,0.411,0.267c-0.303-0.306-0.992-0.985-2.076-1.757c-0.527-0.402-1.113-0.874-1.83-1.282
								c-0.707-0.419-1.425-0.945-2.282-1.331c-3.299-1.767-7.655-3.084-11.564-3.38c-2.418-0.177-5.967-0.23-10.534,1.114
								c0.683-0.175,1.531-0.443,2.462-0.65c0.944-0.141,1.943-0.388,2.917-0.467c0.975-0.059,1.902-0.211,2.675-0.187
								c0.784,0.002,1.395,0.004,1.726,0.005c0.784-0.006,1.447,0.119,2.034,0.153c0.585,0.057,1.094,0.076,1.536,0.175
								c0.893,0.153,1.583,0.271,2.292,0.393c0.711,0.189,1.437,0.382,2.419,0.643c0.483,0.168,1.023,0.383,1.659,0.626
								c0.316,0.125,0.663,0.244,1.023,0.404c0.352,0.177,0.729,0.367,1.135,0.571c2.67,1.321,6.124,3.583,8.999,6.5
								c2.911,2.869,5.183,6.348,6.369,8.865c-0.414-0.618-1.043-1.398-1.67-2.289c-0.637-0.889-1.482-1.797-2.21-2.774
								c-1.654-1.847-3.334-3.722-4.725-5.092c0.752,0.751,1.297,1.526,1.855,2.181c0.576,0.643,1.025,1.273,1.466,1.847
								c0.938,1.114,1.663,2.112,2.483,3.115c0.435,0.49,0.765,1.04,1.159,1.61c0.363,0.581,0.837,1.171,1.154,1.895
								c0.34,0.715,0.725,1.5,1.052,2.408c0.261,0.921,0.588,1.948,0.751,3.132c0.111,0.881,0.41,1.898,0.619,3.026
								c-0.034,0.538-0.066,1.062-0.101,1.61c-0.02,0.273-0.041,0.552-0.062,0.843c-0.048,0.288-0.098,0.586-0.15,0.901
								c-0.247,3.957-1.024,7.7-2.47,11.236c-1.448,3.517-3.62,6.851-6.756,9.456c0.467-0.517,1.24-0.348,1.816-0.807
								c2.872-2.201,4.777-5.117,5.994-8.253c1.206-3.159,1.889-6.483,2.335-10.133c0.116-0.698-0.001-1.566-0.148-2.42
								c-0.208-0.861-0.428-1.708-0.459-2.433c-0.295-2.925-0.33-5.573-1.165-8.222c1.297,2.484,2.102,5.512,2.407,8.674
								c0.345,3.173-0.005,6.462-0.671,9.543c-0.124,0.645-0.136,1.404-0.142,2.146c-0.031,0.738-0.061,1.457-0.084,2.011
								c1.176-2.786,1.754-5.796,1.992-8.782c0.225-5.29-1.452-11.217-4.128-15.777c-2.61-4.627-5.823-8.094-8.199-10.421
								c-0.164-0.114-0.327-0.228-0.658-0.458c-0.06-0.081-0.15-0.185-0.274-0.276c-1.087-0.72-2.286-1.669-3.476-2.383
								c0,0,0.193,0.109,0.483,0.271c0.283,0.173,0.695,0.359,1.051,0.624c0.733,0.51,1.465,1.019,1.465,1.019
								c4.084,2.388,7.887,6.254,10.489,11.149c2.678,4.89,3.771,10.769,3.714,16.619c0.021,0.654-0.095,1.401-0.246,2.194
								c-0.078,0.396-0.17,0.803-0.269,1.214c-0.122,0.405-0.267,0.811-0.406,1.218c-0.299,0.807-0.546,1.631-0.866,2.37
								c-0.311,0.743-0.576,1.448-0.736,2.089c-1.135,3.683-3.219,7.22-6.018,10.089c-0.726,0.689-1.417,1.422-2.214,2.025
								c-0.794,0.607-1.606,1.188-2.421,1.751c-0.858,0.498-1.728,0.968-2.598,1.414c-0.855,0.473-1.806,0.757-2.701,1.109
								c-3.259,1.211-6.674,1.945-10.064,1.996c-3.376,0.071-6.707-0.287-9.81-1.266c-3.1-0.951-5.999-2.291-8.573-4.02
								c-2.562-1.752-4.81-3.804-6.726-6.053c-7.544-9.167-9.369-21.209-5.667-31.307c0.184-0.466,0.368-0.933,0.55-1.394
								c-0.093,0.198-0.184,0.391-0.274,0.583l0.556-1.293c1.155-2.518,2.665-4.821,4.455-6.857c0.721-0.843-1.258,1.509-1.73,2.213
								c0.159-0.264,0.375-0.485,0.512-0.67c0.144-0.179,0.241-0.299,0.241-0.299s-0.065,0.096-0.131,0.193
								c0.273-0.338,0.459-0.568,0.68-0.841c-3.921,4.61-5.835,10.723-5.721,16.588c0.128-0.66,0.16-2.405,0.251-3.234
								c0.185-1.95,0.562-3.912,1.199-5.61c1.578-4.821,4.954-9.205,8.942-12.156c0.76-0.497,1.518-0.992,2.272-1.486
								C59.117,45.513,57.117,46.697,55.622,47.775z M79.24,99.701c-1.915,0.033-3.76-0.203-5.587-0.625l-0.95-0.029l-0.946-0.125
								c-0.777-0.153-1.614-0.076-2.481-0.13c-3.304-0.809-6.362-2.152-9.076-3.899c2.473,2.198,5.666,4.282,10.043,4.947
								c-5.663-0.616-10.463-3.287-13.972-6.651c-1.819-1.626-3.265-3.534-4.616-5.407l-0.927-1.472
								c-0.153-0.245-0.32-0.478-0.463-0.728l-0.403-0.767l-0.827-1.514l-0.708-1.58c-1.23-2.497-2.256-5.174-2.752-8.058
								c-0.196-1.01-0.298-2.028-0.433-3.038c-0.017-1.012-0.135-2.031-0.068-3.037c-0.415,6.343,1.154,12.667,4.398,18.231
								c3.259,5.524,8.285,10.41,14.837,13.279c3.26,1.433,6.881,2.287,10.635,2.449c3.752,0.163,7.639-0.412,11.321-1.755
								c7.403-2.565,13.846-8.698,16.815-16.302c-2.418,4.686-5.912,8.648-10.101,11.408C88.818,97.676,84.062,99.338,79.24,99.701z
								 M82.27,97.938c3.528-1.121,6.793-2.991,9.483-5.439c3.782-3.184,6.815-7.647,8.184-12.172
								c1.378-4.538,1.179-8.919,0.246-11.872c0.56,4.084,0.268,8.464-1.141,12.663c-1.38,4.193-3.838,8.222-7.288,11.381
								c1.645-1.489,2.538-2.393,2.804-2.774c0.293-0.357,0.06-0.105-0.6,0.634c-1.408,1.356-4.756,4.668-10.246,6.949
								C83.488,97.474,82.943,97.686,82.27,97.938z"/>
							<path fill="#FFFFFF" d="M44.335,72.89c-0.073-3.812,0.434-7.628,1.596-11.19c-0.251,0.668-0.515,1.291-0.689,1.975
								c-0.181,0.68-0.455,1.379-0.617,2.211c-0.205,1.125-0.462,2.292-0.52,3.507c-0.157,1.212-0.11,2.451-0.105,3.71
								c0.149,2.5,0.483,5.067,1.152,7.501c0.868,3.523,2.319,7.071,4.507,10.373c2.177,3.301,5.106,6.331,8.682,8.685
								c3.567,2.357,7.778,4.027,12.282,4.68c4.496,0.663,9.278,0.287,13.775-1.187c0.455-0.113,1.18-0.319,1.957-0.609
								c0.757-0.329,1.551-0.768,2.186-1.22c-5.475,2.372-11.444,3.195-16.965,2.37c-0.69-0.102-1.375-0.204-2.052-0.323
								l-1.999-0.507c-0.662-0.163-1.312-0.35-1.945-0.603l-1.888-0.707c-2.449-1.092-4.76-2.353-6.786-3.955
								c-2.077-1.51-3.828-3.372-5.419-5.243c-0.732-1.003-1.487-1.96-2.12-2.993c-0.602-1.058-1.267-2.045-1.73-3.151
								C45.605,81.93,44.44,77.403,44.335,72.89z"/>
							<path fill="#FFFFFF" d="M106.809,77.957c0.161-1.757,0.087-3.514,0.016-5.212c-0.064-0.851-0.174-1.693-0.264-2.518
								c-0.07-0.826-0.217-1.635-0.369-2.43c0.093,1.457,0.046,3.175,0.045,4.938c-0.057,0.883-0.114,1.773-0.17,2.643
								c-0.062,0.873-0.22,1.715-0.332,2.519c-0.557,4.535-2.137,9.049-4.681,12.944C104.016,87.258,106.122,82.804,106.809,77.957z
								"/>
							<path fill="#FFFFFF" d="M88.544,101.325c0.436-0.19,0.887-0.358,1.311-0.578c0.422-0.227,0.845-0.454,1.271-0.683
								c3.909-2.1,7.407-5.33,9.928-9.223c-3.12,3.805-7.157,6.649-11.448,8.588C89.95,99.978,89.447,100.711,88.544,101.325z"/>
						</g>
					</g>
				</g>
			</g>
		</g>
		<g>
			<g>
				<g>
					<g>
						<g opacity="0.8">
							<g>
								<path fill="#FFFFFF" d="M69.444,44.838c-0.832-3.003-2.411-5.547-4.687-7.368c-1.702-1.469-3.462-2.73-5.464-3.708
									c-1.995-0.968-4.252-1.643-6.758-1.666c-2.48-0.049-4.815,0.458-7.046,1.437c-2.331,0.811-4.637,2.23-6.555,4.217
									c-1.91,1.98-3.468,4.512-4.213,7.342c-0.105,0.296-0.315,0.885-0.416,1.396c-0.048,0.522,0.015,0.953,0.361,0.916
									c-0.627,2.699-0.656,5.565,0.004,8.292c0.65,2.718,1.999,5.285,3.973,7.242c1.552,1.683,3.146,3.688,5.319,4.743
									c1.774,0.772,3.519,1.527,5.376,2.058c1.857,0.462,3.801,0.757,5.724,0.531c0.533-0.131,1.6-0.702,2.04-0.71
									c2.632-0.181,5.042-1.299,6.961-2.851c1.934-1.558,3.398-3.52,4.578-5.558c0.533-0.759,0.811-1.548,1.198-2.248
									c0.151-0.373,0.301-0.742,0.455-1.12c0.083-0.186,0.167-0.373,0.253-0.564c0.069-0.197,0.14-0.398,0.213-0.604
									c-0.225-0.251-0.047-0.625,0.021-1.114c0.09-0.313,0.282-0.979,0.571-1.814c0.191-0.854,0.48-1.884,0.595-2.933
									c0.106-0.522,0.132-1.044,0.159-1.541c0.021-0.496,0.104-0.972,0.074-1.385c-0.011-0.831,0.014-1.458,0.081-1.652
									c0.024-0.096,0.236,0.784,0.464,2.174c0.142,1.394,0.26,3.32-0.06,5.221c-0.308,1.891-0.824,3.775-1.435,5.082
									c-0.251,0.679-0.528,1.207-0.708,1.575c-0.174,0.371-0.251,0.582-0.198,0.574c0.157-0.103,1.604-2.333,2.294-4.941
									c0.147-0.653,0.319-1.305,0.445-1.931c0.086-0.634,0.168-1.235,0.241-1.768c0.051-1.073,0.085-1.869,0.116-2.094
									c0.213,2.355-0.007,4.545-0.431,6.495c-0.123,0.486-0.243,0.96-0.359,1.421c-0.147,0.452-0.314,0.885-0.464,1.314
									c-0.269,0.875-0.713,1.614-1.038,2.368c-1.512,2.908-3.28,4.804-4.657,6.053c-0.663,0.671-1.3,1.102-1.78,1.493
									c-0.478,0.398-0.864,0.652-1.136,0.826c-0.537,0.362-0.595,0.438-0.283,0.29c0.313-0.146,1.005-0.497,1.859-1.138
									c0.435-0.306,0.935-0.642,1.416-1.097c0.486-0.445,1.052-0.877,1.54-1.451c2.094-2.144,3.967-5.264,4.84-8.19
									c0.761-1.745,1.146-4.471,1.174-8.04c0.033,0.532,0.146,1.212,0.214,1.955c0.014,0.736,0.114,1.557,0.079,2.333
									c-0.05,0.771-0.032,1.544-0.146,2.155c-0.098,0.616-0.19,1.109-0.267,1.371c-0.726,2.423-1.164,3.448-1.635,4.548
									c-0.28,0.525-0.591,1.064-1.055,1.771c-0.254,0.336-0.564,0.7-0.926,1.126c-0.184,0.21-0.373,0.444-0.598,0.676
									c-0.236,0.22-0.49,0.457-0.762,0.711c-1.773,1.67-4.418,3.762-7.438,5.135c-2.991,1.418-6.248,2.065-8.435,2.171
									c0.568-0.123,1.315-0.359,2.15-0.58c0.835-0.228,1.74-0.62,2.666-0.922c1.825-0.775,3.652-1.632,5.068-2.295
									c-0.783,0.339-1.517,0.536-2.158,0.78c-0.637,0.261-1.227,0.442-1.772,0.632c-1.078,0.432-2.013,0.742-2.978,1.099
									c-0.48,0.201-0.98,0.302-1.509,0.44c-0.531,0.111-1.094,0.295-1.718,0.322c-0.622,0.046-1.305,0.099-2.061,0.072
									c-0.75-0.081-1.589-0.143-2.498-0.362c-0.673-0.175-1.489-0.252-2.352-0.439c-0.383-0.172-0.756-0.339-1.147-0.514
									c-0.394-0.163-0.791-0.364-1.216-0.621c-2.794-1.268-5.247-2.856-7.364-4.831c-2.106-1.974-3.886-4.359-5.024-7.203
									c0.248,0.461,0.09,0.907,0.292,1.416c0.979,2.506,2.505,4.579,4.368,6.284c1.877,1.702,4.012,3.121,6.501,4.455
									c0.472,0.269,1.105,0.455,1.742,0.613c0.657,0.114,1.315,0.214,1.847,0.4c2.195,0.618,4.153,1.35,6.344,1.569
									c-4.392,0.336-9.579-1.408-13.457-4.144c-0.412-0.272-0.917-0.507-1.401-0.739c-0.467-0.247-0.928-0.492-1.28-0.679
									c1.619,1.567,3.538,2.808,5.547,3.859c3.588,1.715,8.242,2.474,12.397,1.939c4.181-0.442,7.761-1.817,10.414-2.706
									c0.135-0.096,0.27-0.191,0.543-0.385c0.091-0.007,0.206-0.034,0.32-0.092c0.906-0.588,2.043-1.191,3.08-1.78
									c0,0-0.151,0.111-0.378,0.279c-0.233,0.159-0.518,0.406-0.846,0.591c-0.645,0.385-1.289,0.771-1.289,0.771
									c-3.074,2.514-7.324,3.948-11.698,4.178c-4.409,0.291-8.881-0.84-12.875-2.625c-0.452-0.184-0.933-0.49-1.444-0.817
									c-0.25-0.169-0.51-0.344-0.774-0.523c-0.245-0.203-0.494-0.41-0.744-0.617c-0.486-0.427-0.999-0.813-1.431-1.235
									c-0.436-0.416-0.853-0.79-1.241-1.081c-4.392-3.618-7.342-9.425-7.579-15.086c-0.443-5.083,0.797-10.187,3.275-14.382
									c1.26-2.089,2.772-3.995,4.547-5.59c1.788-1.58,3.77-2.882,5.872-3.869c2.133-0.931,4.352-1.552,6.586-1.849
									c2.246-0.226,4.481-0.195,6.633,0.206c2.145,0.433,4.19,1.143,6.058,2.127c1.851,1.027,3.514,2.29,4.952,3.725
									c0.288,0.243,0.576,0.486,0.86,0.725c-0.079-0.161-0.155-0.317-0.232-0.473l0.667,0.845
									c1.498,1.436,2.704,3.147,3.365,5.049c0.21,0.809-0.758-1.217-1.315-1.58c0.223,0.385,0.404,0.792,0.404,0.792
									s-0.166,0.009-0.335,0.019c0.232,0.248,0.185,0.511,0.215,0.763c-2.112-3.666-5.618-6.446-9.545-8.057
									c0.313,0.535,1.453,1.004,1.948,1.328c1.244,0.6,2.475,1.305,3.339,2.248c1.403,1.08,2.44,2.604,3.255,4.144
									c0.843,1.544,1.259,3.232,1.711,4.78c0.033,0.619,0.056,1.225,0.049,1.805c-0.012,0.228-0.073,0.292-0.16,0.237
									c-0.087-0.064-0.2-0.23-0.318-0.403C69.766,46.007,69.55,45.402,69.444,44.838z M29.937,48.464
									c0.315-1.408,0.777-2.727,1.396-4.012l0.221-0.705l0.291-0.681c0.272-0.55,0.415-1.191,0.679-1.816
									c1.267-2.313,2.918-4.355,4.858-6.013c-2.16,1.429-4.25,3.461-5.645,6.566c1.69-4.044,4.598-7.154,7.93-9.059
									c1.632-1.012,3.428-1.646,5.186-2.156c0.915-0.17,1.78-0.444,2.702-0.505l1.352-0.159l1.363-0.034
									c2.168-0.153,4.369-0.078,6.533,0.414c0.765,0.149,1.509,0.358,2.256,0.525c0.719,0.259,1.469,0.427,2.165,0.725
									c-4.208-2.267-9.342-3.135-14.363-2.129c-5,0.993-9.821,3.85-13.197,8.173c-3.383,4.297-5.207,10.049-4.783,15.861
									c0.331,5.807,3.104,11.614,7.593,15.721C31.007,63.471,28.664,55.678,29.937,48.464z M30.312,51.091
									c0.037,2.85,0.638,5.671,1.761,8.234c1.446,3.516,3.936,6.813,6.862,9.006c2.932,2.196,6.163,3.29,8.582,3.418
									c-6.38-1.224-12.519-5.814-15.444-12.424c0.704,1.555,1.145,2.427,1.358,2.714c0.188,0.302,0.058,0.072-0.329-0.586
									c-0.658-1.354-2.288-4.587-2.686-9.154C30.367,52.094,30.34,51.644,30.312,51.091z"/>
								<path fill="#FFFFFF" d="M57.869,28.586c2.851,1.125,5.435,2.782,7.433,4.853c-0.591-1.025-1.235-1.861-2.251-2.816
									c-1.444-1.168-3.254-2.056-5.196-2.655c-1.949-0.548-4.012-0.917-6.045-0.993c-2.921-0.184-5.973,0.222-8.894,1.279
									c-2.92,1.053-5.689,2.759-8.03,5.004c-4.71,4.458-7.602,11.172-7.395,18.079c-0.008,0.339-0.006,0.886,0.025,1.488
									c0.068,0.596,0.192,1.244,0.335,1.79c-1.12-8.652,2.53-17.185,8.698-22.1C42.628,27.417,51.085,26.12,57.869,28.586z"/>
								<path fill="#FFFFFF" d="M39.565,73.069c1.133,0.648,2.344,1.126,3.525,1.618c1.216,0.401,2.397,0.861,3.605,1.134
									c-1.062-0.39-2.26-0.963-3.488-1.489c-0.598-0.303-1.2-0.609-1.788-0.907c-0.588-0.298-1.121-0.663-1.646-0.968
									c-2.946-1.718-5.562-4.037-7.568-6.771C33.992,68.573,36.466,71.166,39.565,73.069z"/>
								<path fill="#FFFFFF" d="M27.851,54.615c0.052,0.693,0.186,1.372,0.337,2.06c0.63,3.158,2.011,6.289,4.018,9.01
									c-1.894-3.05-3.035-6.43-3.536-9.848C28.353,55.918,28.037,55.384,27.851,54.615z"/>
							</g>
						</g>
					</g>
				</g>
			</g>
		</g>
	</g>
</g>
</svg>
