<?xml version="1.0" encoding="utf-8"?>
<!-- Generator: Adobe Illustrator 17.0.0, SVG Export Plug-In . SVG Version: 6.00 Build 0)  -->
<!DOCTYPE svg PUBLIC "-//W3C//DTD SVG 1.1//EN" "http://www.w3.org/Graphics/SVG/1.1/DTD/svg11.dtd">
<svg version="1.1" id="Layer_1" xmlns="http://www.w3.org/2000/svg" xmlns:xlink="http://www.w3.org/1999/xlink" x="0px" y="0px"
	 width="120px" height="146px" viewBox="3 -10 120 146" enable-background="new 3 -10 120 146" xml:space="preserve">
<g>
	<path fill="#8FA827" d="M5.643-2.178L16.07,114.981l46.766,13.197l47.091-13.197l10.43-117.159
		C120.357-2.178,5.643-2.178,5.643-2.178z"/>
	<g>
		<path fill="#DCDDD7" d="M50.488,79.089v3.654L21.923,69.319v-3.027l28.565-12.741v3.657L26.437,67.834L50.488,79.089z"/>
		<path fill="#DCDDD7" d="M58.088,87.544h-3.201l13.427-47.362h3.199L58.088,87.544z"/>
		<path fill="#DCDDD7" d="M104.076,69.319L75.511,82.744v-3.654l24.053-11.256L75.511,57.208v-3.657l28.565,12.741V69.319z"/>
	</g>
	<polygon opacity="0.4" fill="#7D8725" points="62.999,-2.178 62.999,128.178 109.926,114.981 120.356,-2.178 	"/>
</g>
</svg>
