<?xml version="1.0" encoding="iso-8859-1"?>
<!-- Generator: Adobe Illustrator 16.0.4, SVG Export Plug-In . SVG Version: 6.00 Build 0)  -->
<!DOCTYPE svg PUBLIC "-//W3C//DTD SVG 1.1//EN" "http://www.w3.org/Graphics/SVG/1.1/DTD/svg11.dtd">
<svg version="1.1" id="Capa_1" xmlns="http://www.w3.org/2000/svg" xmlns:xlink="http://www.w3.org/1999/xlink" x="0px" y="0px"
	 width="20.332px" height="35px" viewBox="0 0 20.332 35" style="enable-background:new 0 0 20.332 35;" xml:space="preserve">
<path d="M17.968,0H2.364C1.064,0,0,1.063,0,2.364v30.271C0,33.936,1.064,35,2.364,35h15.604c1.3,0,2.364-1.063,2.364-2.364V2.364
	C20.332,1.063,19.268,0,17.968,0z M7.67,1.704h4.992c0.158,0,0.286,0.128,0.286,0.287c0,0.158-0.128,0.286-0.286,0.286H7.67
	c-0.158,0-0.286-0.128-0.286-0.286C7.384,1.832,7.512,1.704,7.67,1.704z M10.166,33.818c-0.653,0-1.182-0.529-1.182-1.182
	c0-0.653,0.529-1.182,1.182-1.182s1.182,0.529,1.182,1.182C11.348,33.289,10.819,33.818,10.166,33.818z M18.687,30.625H1.645V3.749
	h17.042V30.625z"/>
</svg>
